<?xml version="1.0" encoding="UTF-8"?>
<svg xmlns="http://www.w3.org/2000/svg" width="1754" height="1240" viewBox="0 0 1754 1240" role="img" aria-label="RadarChat logo">
  <defs>
    <style>
      .brand { font-family: DejaVu Sans, Arial, Helvetica, sans-serif; font-weight: 800; letter-spacing: -1.5px; }
      .tag { font-family: DejaVu Sans, Arial, Helvetica, sans-serif; font-weight: 500; }
      .small { font-family: DejaVu Sans, Arial, Helvetica, sans-serif; font-weight: 700; }
    </style>
    
    <linearGradient id="g1" x1="0" y1="0" x2="1" y2="1">
      <stop offset="0" stop-color="#00D4FF"/>
      <stop offset="0.55" stop-color="#2563EB"/>
      <stop offset="1" stop-color="#22C55E"/>
    </linearGradient>
    <linearGradient id="g2" x1="0" y1="1" x2="1" y2="0">
      <stop offset="0" stop-color="#2563EB"/>
      <stop offset="1" stop-color="#0F172A"/>
    </linearGradient>
    <filter id="softShadow" x="-30%" y="-30%" width="160%" height="160%">
      <feDropShadow dx="0" dy="14" stdDeviation="16" flood-color="#000000" flood-opacity="0.18"/>
    </filter>
    <filter id="glow" x="-50%" y="-50%" width="200%" height="200%">
      <feGaussianBlur stdDeviation="5" result="blur"/>
      <feMerge><feMergeNode in="blur"/><feMergeNode in="SourceGraphic"/></feMerge>
    </filter>
    
  </defs>
  
  
    <rect width="1754" height="1240" fill="#F8FAFC"/>
    <rect x="0" y="0" width="584.6666666666666" height="1240" fill="#FFFFFF"/>
    <rect x="584.6666666666666" y="0" width="584.6666666666666" height="1240" fill="#F8FAFC"/>
    <rect x="1169.3333333333333" y="0" width="584.6666666666666" height="1240" fill="#FFFFFF"/>
    <line x1="584.6666666666666" y1="70" x2="584.6666666666666" y2="1170" stroke="#CBD5E1" stroke-dasharray="15 15"/>
    <line x1="1169.3333333333333" y1="70" x2="1169.3333333333333" y2="1170" stroke="#CBD5E1" stroke-dasharray="15 15"/>
    <circle cx="1500" cy="120" r="300" fill="url(#g1)" opacity="0.13"/>
    <circle cx="300" cy="1100" r="260" fill="url(#g2)" opacity="0.10"/>
    
    <text x="80" y="130" class="small" font-size="30" fill="#2563EB">PARA EQUIPES</text>
    <text x="80" y="215" class="brand" font-size="52" fill="#0F172A">Organização</text>
    <text x="80" y="275" class="brand" font-size="52" fill="#0F172A">no atendimento</text>
    <text x="80" y="355" class="tag" font-size="24" fill="#475569" text-anchor="start">
<tspan x="80" dy="0">Status do atendente, supervisão, fila,</tspan>
<tspan x="80" dy="34">contatos e histórico para reduzir perda</tspan>
<tspan x="80" dy="34">de conversas.</tspan>
</text>
    <rect x="80" y="505" width="420" height="82" rx="25" fill="url(#g1)" opacity="0.96"/>
    <text x="290" y="557" text-anchor="middle" class="small" font-size="25" fill="#fff">WhatsApp + WebChat + IA</text>
    
    <text x="664.6666666666666" y="130" class="small" font-size="30" fill="#2563EB">COMO FUNCIONA</text>
    <text x="664.6666666666666" y="215" class="brand" font-size="50" fill="#0F172A">Do primeiro contato</text>
    <text x="664.6666666666666" y="275" class="brand" font-size="50" fill="#0F172A">até o fechamento</text>
    
        <circle cx="689.6666666666666" cy="390" r="30" fill="url(#g1)"/>
        <text x="689.6666666666666" y="399" text-anchor="middle" class="small" font-size="26" fill="#fff">1</text>
        <text x="739.6666666666666" y="386" class="small" font-size="30" fill="#0F172A">Cliente chama</text>
        <text x="739.6666666666666" y="424" class="tag" font-size="22" fill="#475569">WhatsApp, site ou formulário.</text>
        
        <circle cx="689.6666666666666" cy="535" r="30" fill="url(#g1)"/>
        <text x="689.6666666666666" y="544" text-anchor="middle" class="small" font-size="26" fill="#fff">2</text>
        <text x="739.6666666666666" y="531" class="small" font-size="30" fill="#0F172A">RadarChat organiza</text>
        <text x="739.6666666666666" y="569" class="tag" font-size="22" fill="#475569">Fila, origem e responsável.</text>
        
        <circle cx="689.6666666666666" cy="680" r="30" fill="url(#g1)"/>
        <text x="689.6666666666666" y="689" text-anchor="middle" class="small" font-size="26" fill="#fff">3</text>
        <text x="739.6666666666666" y="676" class="small" font-size="30" fill="#0F172A">Equipe resolve</text>
        <text x="739.6666666666666" y="714" class="tag" font-size="22" fill="#475569">Atendente, supervisor e IA.</text>
        
        <circle cx="689.6666666666666" cy="825" r="30" fill="url(#g1)"/>
        <text x="689.6666666666666" y="834" text-anchor="middle" class="small" font-size="26" fill="#fff">4</text>
        <text x="739.6666666666666" y="821" class="small" font-size="30" fill="#0F172A">Lead evolui</text>
        <text x="739.6666666666666" y="859" class="tag" font-size="22" fill="#475569">Kanban, tag e acompanhamento.</text>
        
    <g transform="translate(1369.3333333333333,72) scale(0.7727272727272727)" filter="url(#softShadow)">
      <rect x="24" y="28" width="160" height="132" rx="42" fill="url(#g1)"/>
      <path d="M74 160 L52 194 L110 162 Z" fill="url(#g1)"/>
      <circle cx="94" cy="92" r="11" fill="#fff"/>
      <path d="M113 74 C134 88 134 116 113 130" fill="none" stroke="#fff" stroke-width="13" stroke-linecap="round" opacity="0.95"/>
      <path d="M137 52 C177 82 177 136 137 166" fill="none" stroke="#fff" stroke-width="12" stroke-linecap="round" opacity="0.70"/>
      <path d="M60 72 C43 90 43 114 60 132" fill="none" stroke="#fff" stroke-width="10" stroke-linecap="round" opacity="0.75"/>
      <circle cx="154" cy="48" r="10" fill="#22C55E" stroke="#fff" stroke-width="5"/>
    </g>
    <text x="1461.3333333333333" y="315" class="brand" font-size="56" text-anchor="middle"><tspan fill="#0F172A">Radar</tspan><tspan fill="#2563EB">Chat</tspan></text>
    <text x="1284.3333333333333" y="480" class="brand" font-size="54" fill="#0F172A">Atendimento</text>
    <text x="1284.3333333333333" y="542" class="brand" font-size="54" fill="#0F172A">profissional</text>
    <text x="1284.3333333333333" y="620" class="tag" font-size="25" fill="#475569" text-anchor="start">
<tspan x="1284.3333333333333" dy="0">Atendimento inteligente em tempo</tspan>
<tspan x="1284.3333333333333" dy="34">real</tspan>
</text>
    <rect x="1284.3333333333333" y="745" width="450" height="110" rx="34" fill="url(#g1)"/>
    <text x="1509.3333333333333" y="813" text-anchor="middle" class="small" font-size="29" fill="#fff">radarchat.com.br</text>
    <text x="1284.3333333333333" y="1040" class="tag" font-size="21" fill="#475569">Conceito visual 1: Signal Pro</text>
    
</svg>